# xmcd
#
# Track frame offsets:
#	150
#	16535
#	30570
#	46714
#	59172
#	77119
#	95512
#	110170
#	128313
#	146597
#	162373
#	181257
#	195348
#	207060
#	222304
#	235369
#	248020
#	267314
#	281324
#	299546
#	314288
#	330104
#
# Disc length: 4582 seconds
#
# Revision: 1
# Processed by: cddbd v1.5.2PL0 Copyright (c) Steve Scherf et al.
# Submitted via: EZCDAudioConverter 1.3.3.1
#
DISCID=2f11e416
DTITLE=Luan Santana - X
DYEAR=2018
DGENRE=Varios
TTITLE0=Acordando o prédio
TTITLE1=Eu, você, o mar e ela
TTITLE2=Tudo o que você quiser
TTITLE3=Estaca zero (ft. Ivete Sangalo)
TTITLE4=2050
TTITLE5=Te esperando
TTITLE6=Cê topa
TTITLE7=Fantasma (ft. Marília Mendonça)
TTITLE8=Escreve aí
TTITLE9=Amar não é pecado
TTITLE10=Dia, lugar e hora
TTITLE11=Acertou a mão
TTITLE12=Tanto faz
TTITLE13=Check-in
TTITLE14=Mamita (ft. CNCO)
TTITLE15=Sogrão caprichou
TTITLE16=Bailando (ft. Enrique Iglesias)
TTITLE17=Chuva de arroz
TTITLE18=Nosso contrato (ft. Edson e Hudson)
TTITLE19=Moça do espelho (ft. Harmonia)
TTITLE20=Meu melhor lugar (ft. Fernando and Sorocaba)
TTITLE21=Contatinho (ft. Nego do Borel)
EXTD=
EXTT0=
EXTT1=
EXTT2=
EXTT3=
EXTT4=
EXTT5=
EXTT6=
EXTT7=
EXTT8=
EXTT9=
EXTT10=
EXTT11=
EXTT12=
EXTT13=
EXTT14=
EXTT15=
EXTT16=
EXTT17=
EXTT18=
EXTT19=
EXTT20=
EXTT21=
PLAYORDER=
